0
SECTION
2
HEADER
9
$INSUNITS
70
4
9
$ACADVER
1
AC1014
9
$HANDSEED
5
FFFF
0
ENDSEC
0
SECTION
2
TABLES
0
TABLE
2
VPORT
5
8
100
AcDbSymbolTable
0
ENDTAB
0
TABLE
2
LTYPE
5
5
100
AcDbSymbolTable
0
LTYPE
5
14
100
AcDbSymbolTableRecord
100
AcDbLinetypeTableRecord
2
BYBLOCK
70
0
0
LTYPE
5
15
100
AcDbSymbolTableRecord
100
AcDbLinetypeTableRecord
2
BYLAYER
70
0
0
ENDTAB
0
TABLE
2
LAYER
5
2
100
AcDbSymbolTable
70
2
0
LAYER
5
50
100
AcDbSymbolTableRecord
100
AcDbLayerTableRecord
2
0
70
0
6
CONTINUOUS
0
ENDTAB
0
TABLE
2
STYLE
5
3
100
AcDbSymbolTable
70
1
0
STYLE
5
11
100
AcDbSymbolTableRecord
100
AcDbTextStyleTableRecord
2
STANDARD
70
0
0
ENDTAB
0
TABLE
2
VIEW
5
6
100
AcDbSymbolTable
70
0
0
ENDTAB
0
TABLE
2
UCS
5
7
100
AcDbSymbolTable
70
0
0
ENDTAB
0
TABLE
2
APPID
5
9
100
AcDbSymbolTable
70
2
0
APPID
5
12
100
AcDbSymbolTableRecord
100
AcDbRegAppTableRecord
2
ACAD
70
0
0
ENDTAB
0
TABLE
2
DIMSTYLE
5
A
100
AcDbSymbolTable
70
1
0
ENDTAB
0
TABLE
2
BLOCK_RECORD
5
1
100
AcDbSymbolTable
70
1
0
BLOCK_RECORD
5
1F
100
AcDbSymbolTableRecord
100
AcDbBlockTableRecord
2
*MODEL_SPACE
0
BLOCK_RECORD
5
1B
100
AcDbSymbolTableRecord
100
AcDbBlockTableRecord
2
*PAPER_SPACE
0
ENDTAB
0
ENDSEC
0
SECTION
2
BLOCKS
0
BLOCK
5
20
100
AcDbEntity
100
AcDbBlockBegin
2
*MODEL_SPACE
0
ENDBLK
5
21
100
AcDbEntity
100
AcDbBlockEnd
0
BLOCK
5
1C
100
AcDbEntity
100
AcDbBlockBegin
2
*PAPER_SPACE
0
ENDBLK
5
1D
100
AcDbEntity
100
AcDbBlockEnd
0
ENDSEC
0
SECTION
2
ENTITIES
0
LWPOLYLINE
5
100
100
AcDbEntity
8
0
100
AcDbPolyline
90
8
70
1
43
0.0
10
275.50624999999997
20
-200.69899999999996
10
262.50625000000002
20
-200.69899999999996
42
0.41421356237309503
10
262.00624999999997
20
-201.19899999999998
10
262.00625000000002
20
-214.19900000000001
42
0.41421356237309503
10
262.50625000000002
20
-214.69899999999996
10
275.50624999999997
20
-214.69899999999998
42
0.41421356237309503
10
276.00624999999997
20
-214.19899999999998
10
276.00625000000002
20
-201.19900000000001
42
0.41421356237309503
0
LWPOLYLINE
5
101
100
AcDbEntity
8
0
100
AcDbPolyline
90
8
70
1
43
0.0
10
24.212500000000006
20
-233.249
10
24.21249999999997
20
-220.24900000000002
42
-0.41421356237309503
10
24.712500000000013
20
-219.74899999999997
10
25.212499999999984
20
-219.74900000000002
42
-0.41421356237309503
10
25.712499999999991
20
-220.24900000000002
10
25.712500000000027
20
-233.249
42
-0.41421356237309503
10
25.212499999999984
20
-233.74900000000002
10
24.712500000000013
20
-233.749
42
-0.41421356237309503
0
LWPOLYLINE
5
102
100
AcDbEntity
8
0
100
AcDbPolyline
90
8
70
1
43
0.0
10
21.212499999999999
20
-220.24900000000002
42
0.41421356237309503
10
20.712499999999991
20
-219.74899999999997
10
7.7124999999999844
20
-219.74899999999997
42
0.41421356237309503
10
7.2124999999999773
20
-220.24900000000002
10
7.2124999999999773
20
-233.249
42
0.41421356237309503
10
7.7124999999999844
20
-233.74900000000002
10
20.712499999999991
20
-233.74900000000002
42
0.41421356237309503
10
21.212499999999999
20
-233.249
0
LWPOLYLINE
5
103
100
AcDbEntity
8
0
100
AcDbPolyline
90
8
70
1
43
0.0
10
3.7124999999999986
20
-219.74899999999997
10
3.2124999999999915
20
-219.74899999999997
42
0.41421356237309503
10
2.7125000000000021
20
-220.249
10
2.7124999999999844
20
-233.249
42
0.41421356237309503
10
3.2124999999999915
20
-233.749
10
3.7124999999999986
20
-233.749
42
0.41421356237309503
10
4.2125000000000057
20
-233.249
10
4.2125000000000057
20
-220.24900000000002
42
0.41421356237309503
0
LWPOLYLINE
5
104
100
AcDbEntity
8
0
100
AcDbPolyline
90
8
70
1
43
0.0
10
82.624999999999943
20
-233.749
10
69.624999999999929
20
-233.749
42
-0.41421356237309503
10
69.124999999999929
20
-233.249
10
69.124999999999929
20
-220.249
42
-0.41421356237309503
10
69.624999999999929
20
-219.74899999999997
10
82.624999999999943
20
-219.74899999999997
42
-0.41421356237309503
10
83.124999999999943
20
-220.249
10
83.124999999999943
20
-233.249
42
-0.41421356237309503
0
LWPOLYLINE
5
105
100
AcDbEntity
8
0
100
AcDbPolyline
90
8
70
1
43
0.0
10
50.074999999999967
20
-233.249
42
0.41421356237309503
10
50.574999999999974
20
-233.749
10
63.574999999999982
20
-233.749
42
0.41421356237309503
10
64.074999999999989
20
-233.249
10
64.074999999999989
20
-220.249
42
0.41421356237309503
10
63.574999999999982
20
-219.74899999999997
10
50.574999999999974
20
-219.74899999999997
42
0.41421356237309503
10
50.074999999999967
20
-220.249
0
LWPOLYLINE
5
106
100
AcDbEntity
8
0
100
AcDbPolyline
90
8
70
1
43
0.0
10
44.52499999999997
20
-233.749
10
31.524999999999963
20
-233.749
42
-0.41421356237309503
10
31.024999999999956
20
-233.249
10
31.02499999999992
20
-220.24900000000002
42
-0.41421356237309503
10
31.524999999999963
20
-219.74899999999997
10
44.52499999999997
20
-219.74899999999997
42
-0.41421356237309503
10
45.024999999999977
20
-220.249
10
45.024999999999977
20
-233.249
42
-0.41421356237309503
0
LWPOLYLINE
5
107
100
AcDbEntity
8
0
100
AcDbPolyline
90
8
70
1
43
0.0
10
102.17499999999995
20
-220.249
42
0.41421356237309503
10
101.67499999999995
20
-219.74899999999997
10
88.67499999999994
20
-219.74899999999997
42
0.41421356237309503
10
88.174999999999955
20
-220.249
10
88.17499999999994
20
-233.249
42
0.41421356237309503
10
88.67499999999994
20
-233.749
10
101.67499999999995
20
-233.749
42
0.41421356237309503
10
102.17499999999995
20
-233.249
0
LWPOLYLINE
5
108
100
AcDbEntity
8
0
100
AcDbPolyline
90
8
70
1
43
0.0
10
280.00625000000002
20
-200.69899999999996
10
279.50624999999997
20
-200.69899999999996
42
0.41421356237309503
10
279.00624999999997
20
-201.19899999999998
10
279.00624999999997
20
-214.19899999999998
42
0.41421356237309503
10
279.50625000000002
20
-214.69900000000001
10
280.00624999999997
20
-214.69899999999998
42
0.41421356237309503
10
280.50624999999997
20
-214.19899999999998
10
280.50624999999997
20
-201.19899999999996
42
0.41421356237309503
0
LWPOLYLINE
5
109
100
AcDbEntity
8
0
100
AcDbPolyline
90
8
70
1
43
0.0
10
211.71250000000001
20
-201.19899999999998
42
0.41421356237309503
10
211.21249999999998
20
-200.69899999999993
10
198.21249999999992
20
-200.69899999999996
42
0.41421356237309503
10
197.71249999999992
20
-201.19899999999998
10
197.71249999999995
20
-214.19899999999998
42
0.41421356237309503
10
198.21249999999992
20
-214.69899999999996
10
211.21249999999992
20
-214.69899999999998
42
0.41421356237309503
10
211.71249999999992
20
-214.19899999999998
0
LWPOLYLINE
5
110
100
AcDbEntity
8
0
100
AcDbPolyline
90
8
70
1
43
0.0
10
159.61249999999995
20
-214.19899999999998
10
159.61249999999995
20
-201.19899999999998
42
-0.41421356237309503
10
160.11249999999995
20
-200.69899999999996
10
173.11249999999995
20
-200.69899999999993
42
-0.41421356237309503
10
173.61249999999998
20
-201.19899999999998
10
173.61249999999998
20
-214.19899999999998
42
-0.41421356237309503
10
173.11249999999998
20
-214.69899999999998
10
160.11249999999995
20
-214.69899999999998
42
-0.41421356237309503
0
LWPOLYLINE
5
111
100
AcDbEntity
8
0
100
AcDbPolyline
90
8
70
1
43
0.0
10
178.66249999999994
20
-214.19899999999998
42
0.41421356237309503
10
179.16249999999997
20
-214.69900000000001
10
192.16249999999997
20
-214.69899999999998
42
0.41421356237309503
10
192.66249999999997
20
-214.19899999999998
10
192.66249999999991
20
-201.19899999999998
42
0.41421356237309503
10
192.16249999999997
20
-200.69899999999996
10
179.16249999999997
20
-200.69899999999996
42
0.41421356237309503
10
178.66249999999997
20
-201.19899999999998
0
LWPOLYLINE
5
112
100
AcDbEntity
8
0
100
AcDbPolyline
90
8
70
1
43
0.0
10
249.81249999999994
20
-214.19899999999998
10
249.81249999999994
20
-201.19899999999996
42
0.41421356237309503
10
249.3125
20
-200.69900000000001
10
236.31249999999994
20
-200.69899999999996
42
0.41421356237309503
10
235.81249999999994
20
-201.19899999999998
10
235.81249999999997
20
-214.19899999999998
42
0.41421356237309503
10
236.31249999999994
20
-214.69899999999996
10
249.31249999999994
20
-214.69899999999998
42
0.41421356237309503
0
LWPOLYLINE
5
113
100
AcDbEntity
8
0
100
AcDbPolyline
90
8
70
1
43
0.0
10
258.50625000000002
20
-214.69899999999996
10
258.00624999999997
20
-214.69899999999998
42
-0.41421356237309503
10
257.50625000000002
20
-214.19900000000001
10
257.50625000000002
20
-201.19899999999996
42
-0.41421356237309503
10
258.00624999999997
20
-200.69899999999996
10
258.50624999999991
20
-200.6989999999999
42
-0.41421356237309503
10
259.00624999999997
20
-201.19899999999996
10
259.00624999999997
20
-214.19899999999998
42
-0.41421356237309503
0
LWPOLYLINE
5
114
100
AcDbEntity
8
0
100
AcDbPolyline
90
8
70
1
43
0.0
10
154.56249999999994
20
-201.19899999999998
42
0.41421356237309503
10
154.06249999999994
20
-200.69899999999996
10
141.06249999999994
20
-200.69899999999996
42
0.41421356237309503
10
140.56249999999994
20
-201.19899999999998
10
140.56249999999994
20
-214.19899999999998
42
0.41421356237309503
10
141.06249999999994
20
-214.69899999999998
10
154.06249999999994
20
-214.69899999999998
42
0.41421356237309503
10
154.56249999999994
20
-214.19899999999998
0
LWPOLYLINE
5
115
100
AcDbEntity
8
0
100
AcDbPolyline
90
8
70
1
43
0.0
10
230.26249999999999
20
-200.69899999999996
10
217.26249999999999
20
-200.69899999999996
42
0.41421356237309503
10
216.76249999999999
20
-201.19899999999998
10
216.76249999999996
20
-214.19899999999998
42
0.41421356237309503
10
217.26249999999999
20
-214.69900000000001
10
230.26249999999999
20
-214.69899999999998
42
0.41421356237309503
10
230.76249999999999
20
-214.19899999999998
10
230.76249999999993
20
-201.19899999999996
42
0.41421356237309503
0
LWPOLYLINE
5
116
100
AcDbEntity
8
0
100
AcDbPolyline
90
8
70
1
43
0.0
10
27.85624999999996
20
-214.69900000000001
42
0.41421356237309503
10
28.35624999999996
20
-214.19900000000001
10
28.35624999999995
20
-201.19900000000001
42
0.41421356237309503
10
27.856249999999942
20
-200.69900000000001
10
14.856249999999935
20
-200.69900000000001
42
0.41421356237309503
10
14.356249999999928
20
-201.19900000000001
10
14.356249999999946
20
-214.19900000000001
42
0.41421356237309503
10
14.856249999999953
20
-214.69900000000001
0
LWPOLYLINE
5
117
100
AcDbEntity
8
0
100
AcDbPolyline
90
8
70
1
43
0.0
10
135.51249999999999
20
-214.19899999999998
10
135.51249999999999
20
-201.19899999999998
42
0.41421356237309503
10
135.01249999999996
20
-200.69899999999996
10
122.01249999999996
20
-200.69899999999996
42
0.41421356237309503
10
121.51249999999997
20
-201.19899999999998
10
121.51249999999996
20
-214.19899999999998
42
0.41421356237309503
10
122.01249999999996
20
-214.69899999999998
10
135.01249999999999
20
-214.69899999999998
42
0.41421356237309503
0
LWPOLYLINE
5
118
100
AcDbEntity
8
0
100
AcDbPolyline
90
8
70
1
43
0.0
10
116.46249999999996
20
-214.19899999999998
10
116.46249999999996
20
-201.19899999999998
42
0.41421356237309503
10
115.96249999999996
20
-200.69899999999996
10
102.96249999999995
20
-200.69899999999996
42
0.41421356237309503
10
102.46249999999996
20
-201.19899999999998
10
102.46249999999995
20
-214.19899999999998
42
0.41421356237309503
10
102.96249999999995
20
-214.69900000000001
10
115.96249999999998
20
-214.69899999999998
42
0.41421356237309503
0
LWPOLYLINE
5
119
100
AcDbEntity
8
0
100
AcDbPolyline
90
8
70
1
43
0.0
10
272.68174999999997
20
-194.14899999999994
42
0.41421356237309503
10
273.18174999999997
20
-194.64899999999994
10
279.18174999999997
20
-194.649
42
0.41421356237309503
10
279.68174999999997
20
-194.14899999999994
10
279.68174999999997
20
-180.14899999999997
42
0.41421356237309503
10
279.18174999999997
20
-179.649
10
273.18174999999997
20
-179.649
42
0.41421356237309503
10
272.68174999999997
20
-180.14899999999997
0
LWPOLYLINE
5
120
100
AcDbEntity
8
0
100
AcDbPolyline
90
8
70
1
43
0.0
10
12.91824999999994
20
-199.19899999999998
42
0.41421356237309503
10
12.418249999999933
20
-198.69900000000001
10
6.4182499999999543
20
-198.69900000000001
42
0.41421356237309503
10
5.918249999999956
20
-199.19899999999998
10
5.9182499999999649
20
-213.19900000000001
42
0.41421356237309503
10
6.418249999999972
20
-213.69900000000001
10
12.418249999999951
20
-213.69900000000001
42
0.41421356237309503
10
12.918249999999958
20
-213.19900000000001
0
LWPOLYLINE
5
121
100
AcDbEntity
8
0
100
AcDbPolyline
90
8
70
1
43
0.0
10
78.362499999999983
20
-201.19899999999998
42
0.41421356237309503
10
77.862499999999969
20
-200.69899999999996
10
64.862499999999955
20
-200.69900000000001
42
0.41421356237309503
10
64.362499999999955
20
-201.19900000000001
10
64.362499999999983
20
-214.19899999999998
42
0.41421356237309503
10
64.862499999999969
20
-214.69899999999998
10
77.862499999999969
20
-214.69899999999998
42
0.41421356237309503
10
78.362499999999983
20
-214.19899999999998
0
LWPOLYLINE
5
122
100
AcDbEntity
8
0
100
AcDbPolyline
90
8
70
1
43
0.0
10
59.312499999999972
20
-201.19900000000001
42
0.41421356237309503
10
58.812499999999957
20
-200.69899999999996
10
45.812499999999943
20
-200.69900000000001
42
0.41421356237309503
10
45.312499999999943
20
-201.19900000000001
10
45.312499999999964
20
-214.19899999999998
42
0.41421356237309503
10
45.812499999999972
20
-214.69900000000001
10
58.812499999999979
20
-214.69899999999998
42
0.41421356237309503
10
59.312499999999986
20
-214.19899999999998
0
LWPOLYLINE
5
123
100
AcDbEntity
8
0
100
AcDbPolyline
90
8
70
1
43
0.0
10
96.91249999999998
20
-214.69899999999998
42
0.41421356237309503
10
97.412499999999966
20
-214.19899999999998
10
97.412499999999994
20
-201.19899999999998
42
0.41421356237309503
10
96.91249999999998
20
-200.69899999999996
10
83.91249999999998
20
-200.69899999999996
42
0.41421356237309503
10
83.412499999999966
20
-201.19899999999998
10
83.412499999999966
20
-214.19899999999998
42
0.41421356237309503
10
83.91249999999998
20
-214.69899999999998
0
LWPOLYLINE
5
124
100
AcDbEntity
8
0
100
AcDbPolyline
90
8
70
1
43
0.0
10
257.74374999999998
20
-181.64899999999994
42
0.41421356237309503
10
257.24374999999998
20
-182.149
10
257.24374999999998
20
-195.14899999999997
42
0.41421356237309503
10
257.74374999999998
20
-195.64899999999994
10
270.74374999999998
20
-195.64899999999994
42
0.41421356237309503
10
271.24374999999992
20
-195.14899999999997
10
271.24374999999992
20
-182.149
42
0.41421356237309503
10
270.74374999999998
20
-181.64899999999994
0
LWPOLYLINE
5
125
100
AcDbEntity
8
0
100
AcDbPolyline
90
8
70
1
43
0.0
10
30.294249999999945
20
-198.69900000000001
42
0.41421356237309503
10
29.794249999999938
20
-199.19899999999998
10
29.794249999999955
20
-213.19900000000001
42
0.41421356237309503
10
30.294249999999963
20
-213.69900000000001
10
36.294249999999977
20
-213.69900000000001
42
0.41421356237309503
10
36.794249999999984
20
-213.19900000000001
10
36.794249999999963
20
-199.19899999999998
42
0.41421356237309503
10
36.294249999999963
20
-198.69900000000001
0
LWPOLYLINE
5
126
100
AcDbEntity
8
0
100
AcDbPolyline
90
8
70
1
43
0.0
10
183.13749999999999
20
-182.149
42
0.41421356237309503
10
182.63749999999993
20
-181.649
10
169.63749999999999
20
-181.649
42
0.41421356237309503
10
169.13749999999993
20
-182.149
10
169.13749999999993
20
-195.14899999999997
42
0.41421356237309503
10
169.63749999999999
20
-195.64899999999997
10
182.63749999999993
20
-195.64899999999997
42
0.41421356237309503
10
183.13749999999999
20
-195.14899999999997
0
LWPOLYLINE
5
127
100
AcDbEntity
8
0
100
AcDbPolyline
90
8
70
1
43
0.0
10
249.30574999999999
20
-179.649
42
0.41421356237309503
10
248.80574999999993
20
-180.14899999999997
10
248.80574999999993
20
-194.14899999999994
42
0.41421356237309503
10
249.30574999999999
20
-194.649
10
255.30574999999999
20
-194.649
42
0.41421356237309503
10
255.80574999999996
20
-194.14899999999994
10
255.80574999999996
20
-180.14899999999997
42
0.41421356237309503
10
255.30574999999999
20
-179.649
0
LWPOLYLINE
5
128
100
AcDbEntity
8
0
100
AcDbPolyline
90
8
70
1
43
0.0
10
239.78749999999997
20
-195.64899999999994
10
226.78749999999994
20
-195.64899999999994
42
-0.41421356237309503
10
226.28749999999997
20
-195.14899999999997
10
226.28749999999991
20
-182.149
42
-0.41421356237309503
10
226.78749999999994
20
-181.64899999999994
10
239.78749999999997
20
-181.64900000000003
42
-0.41421356237309503
10
240.28749999999997
20
-182.149
10
240.28749999999997
20
-195.14899999999997
42
-0.41421356237309503
0
LWPOLYLINE
5
129
100
AcDbEntity
8
0
100
AcDbPolyline
90
8
70
1
43
0.0
10
144.53749999999997
20
-181.649
10
131.53749999999997
20
-181.649
42
0.41421356237309503
10
131.03749999999997
20
-182.149
10
131.03749999999997
20
-195.14899999999997
42
0.41421356237309503
10
131.53749999999997
20
-195.64899999999997
10
144.53749999999997
20
-195.64899999999997
42
0.41421356237309503
10
145.03749999999999
20
-195.14899999999997
10
145.03749999999999
20
-182.149
42
0.41421356237309503
0
LWPOLYLINE
5
130
100
AcDbEntity
8
0
100
AcDbPolyline
90
8
70
1
43
0.0
10
125.48749999999997
20
-195.64899999999997
10
112.48749999999995
20
-195.64899999999997
42
-0.41421356237309503
10
111.98749999999995
20
-195.14899999999997
10
111.98749999999995
20
-182.149
42
-0.41421356237309503
10
112.48749999999995
20
-181.649
10
125.48749999999997
20
-181.649
42
-0.41421356237309503
10
125.98749999999997
20
-182.149
10
125.98749999999997
20
-195.14899999999997
42
-0.41421356237309503
0
LWPOLYLINE
5
131
100
AcDbEntity
8
0
100
AcDbPolyline
90
8
70
1
43
0.0
10
164.08749999999998
20
-182.149
42
0.41421356237309503
10
163.58749999999992
20
-181.649
10
150.58749999999998
20
-181.649
42
0.41421356237309503
10
150.08749999999995
20
-182.149
10
150.08749999999995
20
-195.14899999999997
42
0.41421356237309503
10
150.58749999999998
20
-195.64899999999997
10
163.58749999999992
20
-195.64899999999997
42
0.41421356237309503
10
164.08749999999998
20
-195.14899999999997
0
LWPOLYLINE
5
132
100
AcDbEntity
8
0
100
AcDbPolyline
90
8
70
1
43
0.0
10
220.73749999999995
20
-195.64899999999994
42
0.41421356237309503
10
221.23749999999995
20
-195.14899999999997
10
221.23749999999995
20
-182.149
42
0.41421356237309503
10
220.73749999999995
20
-181.64899999999994
10
207.73750000000001
20
-181.649
42
0.41421356237309503
10
207.23749999999995
20
-182.149
10
207.23749999999995
20
-195.14899999999997
42
0.41421356237309503
10
207.73750000000001
20
-195.64899999999997
0
LWPOLYLINE
5
133
100
AcDbEntity
8
0
100
AcDbPolyline
90
8
70
1
43
0.0
10
201.68749999999994
20
-195.64899999999997
10
188.6875
20
-195.649
42
-0.41421356237309503
10
188.18749999999994
20
-195.14899999999997
10
188.18749999999997
20
-182.149
42
-0.41421356237309503
10
188.6875
20
-181.649
10
201.68749999999994
20
-181.64900000000003
42
-0.41421356237309503
10
202.18749999999994
20
-182.149
10
202.18749999999997
20
-195.14899999999997
42
-0.41421356237309503
0
LWPOLYLINE
5
134
100
AcDbEntity
8
0
100
AcDbPolyline
90
8
70
1
43
0.0
10
54.837499999999949
20
-195.149
10
54.837499999999991
20
-182.149
42
-0.41421356237309503
10
55.337499999999963
20
-181.64900000000003
10
68.337499999999963
20
-181.64900000000003
42
-0.41421356237309503
10
68.837499999999935
20
-182.149
10
68.837499999999977
20
-195.149
42
-0.41421356237309503
10
68.337499999999963
20
-195.649
10
55.337499999999963
20
-195.649
42
-0.41421356237309503
0
LINE
5
135
100
AcDbEntity
8
0
100
AcDbLine
10
17.180749999999936
20
-179.649
30
0
11
11.180749999999922
21
-179.649
31
0
0
LINE
5
136
100
AcDbEntity
8
0
100
AcDbLine
10
41.556749999999965
20
-181.64900000000003
30
0
11
41.556749999999965
21
-180.149
31
0
0
LWPOLYLINE
5
137
100
AcDbEntity
8
0
100
AcDbPolyline
90
8
70
1
43
0.0
10
87.387499999999974
20
-195.64899999999997
10
74.387499999999974
20
-195.64899999999997
42
-0.41421356237309503
10
73.88749999999996
20
-195.14899999999997
10
73.88749999999996
20
-182.149
42
-0.41421356237309503
10
74.387499999999974
20
-181.649
10
87.387499999999974
20
-181.649
42
-0.41421356237309503
10
87.887499999999989
20
-182.149
10
87.887499999999989
20
-195.14899999999997
42
-0.41421356237309503
0
ARC
5
138
100
AcDbEntity
8
0
100
AcDbCircle
10
17.180749999999936
20
-180.149
30
0
40
0.50000000000000711
210
0
220
-0
230
1
100
AcDbArc
50
0
51
90
0
LWPOLYLINE
5
139
100
AcDbEntity
8
0
100
AcDbPolyline
90
8
70
1
43
0.0
10
46.64374999999994
20
-195.649
10
46.143749999999969
20
-195.649
42
-0.41421356237309503
10
45.643749999999969
20
-195.149
10
45.643749999999997
20
-182.149
42
-0.41421356237309503
10
46.143749999999969
20
-181.64900000000003
10
46.64374999999994
20
-181.649
42
-0.41421356237309503
10
47.143749999999955
20
-182.149
10
47.143749999999955
20
-195.149
42
-0.41421356237309503
0
ARC
5
140
100
AcDbEntity
8
0
100
AcDbCircle
10
11.180749999999922
20
-180.149
30
0
40
0.50000000000000711
210
0
220
-0
230
1
100
AcDbArc
50
90
51
180
0
LINE
5
141
100
AcDbEntity
8
0
100
AcDbLine
10
10.680749999999914
20
-181.64900000000003
30
0
11
10.680749999999914
21
-180.149
31
0
0
LWPOLYLINE
5
142
100
AcDbEntity
8
0
100
AcDbPolyline
90
8
70
1
43
0.0
10
106.93749999999996
20
-182.149
42
0.41421356237309503
10
106.43749999999996
20
-181.649
10
93.437499999999943
20
-181.649
42
0.41421356237309503
10
92.937499999999943
20
-182.149
10
92.937499999999943
20
-195.14899999999997
42
0.41421356237309503
10
93.437499999999943
20
-195.64899999999997
10
106.43749999999996
20
-195.64899999999997
42
0.41421356237309503
10
106.93749999999996
20
-195.14899999999997
0
ARC
5
143
100
AcDbEntity
8
0
100
AcDbCircle
10
42.143749999999955
20
-182.149
30
0
40
0.50000000000000711
210
0
220
-0
230
1
100
AcDbArc
50
0
51
90
0
LINE
5
144
100
AcDbEntity
8
0
100
AcDbLine
10
32.618749999999949
20
-181.64900000000003
30
0
11
19.618749999999974
21
-181.64900000000003
31
0
0
LINE
5
145
100
AcDbEntity
8
0
100
AcDbLine
10
25.143749999999958
20
-181.64900000000003
30
0
11
24.643749999999951
21
-181.64900000000003
31
0
0
LINE
5
146
100
AcDbEntity
8
0
100
AcDbLine
10
41.056749999999965
20
-179.649
30
0
11
35.05674999999998
21
-179.649
31
0
0
ARC
5
147
100
AcDbEntity
8
0
100
AcDbCircle
10
2.9499999999999282
20
-182.149
30
0
40
0.49999999999997158
210
0
220
-0
230
1
100
AcDbArc
50
90
51
180
0
LWPOLYLINE
5
148
100
AcDbEntity
8
0
100
AcDbPolyline
90
8
70
1
43
0.0
10
234.76249999999993
20
-162.59899999999999
10
234.26249999999996
20
-162.59899999999999
42
0.41421356237309503
10
233.76249999999999
20
-163.09899999999999
10
233.76249999999999
20
-176.09899999999996
42
0.41421356237309503
10
234.26249999999996
20
-176.59899999999999
10
234.76249999999993
20
-176.59899999999999
42
0.41421356237309503
10
235.26249999999999
20
-176.09899999999996
10
235.26249999999999
20
-163.09899999999999
42
0.41421356237309503
0
LINE
5
149
100
AcDbEntity
8
0
100
AcDbLine
10
42.643749999999955
20
-195.149
30
0
11
42.643749999999955
21
-182.149
31
0
0
LINE
5
150
100
AcDbEntity
8
0
100
AcDbLine
10
42.143749999999955
20
-195.649
30
0
11
29.143749999999944
21
-195.649
31
0
0
LINE
5
151
100
AcDbEntity
8
0
100
AcDbLine
10
15.949999999999935
20
-195.649
30
0
11
2.9499999999999282
21
-195.649
31
0
0
ARC
5
152
100
AcDbEntity
8
0
100
AcDbCircle
10
35.05674999999998
20
-180.149
30
0
40
0.50000000000000711
210
0
220
-0
230
1
100
AcDbArc
50
90
51
180
0
LWPOLYLINE
5
153
100
AcDbEntity
8
0
100
AcDbPolyline
90
8
70
1
43
0.0
10
254.07499999999999
20
-176.59899999999999
10
241.07499999999993
20
-176.59899999999993
42
-0.41421356237309503
10
240.57499999999999
20
-176.09899999999996
10
240.5749999999999
20
-163.09899999999999
42
-0.41421356237309503
10
241.07499999999993
20
-162.59899999999993
10
254.07499999999999
20
-162.59900000000002
42
-0.41421356237309503
10
254.57499999999996
20
-163.09899999999999
10
254.57500000000005
20
-176.09899999999996
42
-0.41421356237309503
0
LWPOLYLINE
5
154
100
AcDbEntity
8
0
100
AcDbPolyline
90
8
70
1
43
0.0
10
216.76249999999996
20
-176.09899999999999
10
216.76249999999993
20
-163.09899999999999
42
-0.41421356237309503
10
217.26249999999993
20
-162.59899999999999
10
230.26249999999999
20
-162.59900000000002
42
-0.41421356237309503
10
230.76249999999993
20
-163.09899999999999
10
230.76250000000002
20
-176.09899999999996
42
-0.41421356237309503
10
230.26249999999999
20
-176.59899999999999
10
217.26249999999999
20
-176.59899999999996
42
-0.41421356237313667
0
ARC
5
155
100
AcDbEntity
8
0
100
AcDbCircle
10
41.056749999999965
20
-180.149
30
0
40
0.50000000000000711
210
0
220
-0
230
1
100
AcDbArc
50
0
51
90
0
LINE
5
156
100
AcDbEntity
8
0
100
AcDbLine
10
32.618749999999949
20
-195.649
30
0
11
19.618749999999974
21
-195.649
31
0
0
LINE
5
157
100
AcDbEntity
8
0
100
AcDbLine
10
10.680749999999914
20
-181.64900000000003
30
0
11
2.9499999999999282
21
-181.64900000000003
31
0
0
ARC
5
158
100
AcDbEntity
8
0
100
AcDbCircle
10
42.143749999999955
20
-195.149
30
0
40
0.50000000000000711
210
-0
220
0
230
1
100
AcDbArc
50
-90
51
0
0
LINE
5
159
100
AcDbEntity
8
0
100
AcDbLine
10
34.55674999999998
20
-181.64900000000003
30
0
11
34.55674999999998
21
-180.149
31
0
0
LINE
5
160
100
AcDbEntity
8
0
100
AcDbLine
10
17.680749999999943
20
-181.64900000000003
30
0
11
17.680749999999943
21
-180.149
31
0
0
LWPOLYLINE
5
161
100
AcDbEntity
8
0
100
AcDbPolyline
90
8
70
1
43
0.0
10
203.44999999999999
20
-161.09899999999999
42
0.41421356237309503
10
202.94999999999993
20
-160.59899999999999
10
196.94999999999993
20
-160.59899999999999
42
0.41421356237309503
10
196.44999999999996
20
-161.09899999999999
10
196.44999999999996
20
-175.09900000000002
42
0.41421356237309503
10
196.94999999999993
20
-175.59899999999999
10
202.94999999999993
20
-175.59899999999999
42
0.41421356237309503
10
203.44999999999999
20
-175.09900000000002
0
LWPOLYLINE
5
162
100
AcDbEntity
8
0
100
AcDbPolyline
90
8
70
1
43
0.0
10
149.79999999999995
20
-163.09899999999999
42
0.41421356237309503
10
149.29999999999995
20
-162.59899999999999
10
136.29999999999998
20
-162.59899999999999
42
0.41421356237309503
10
135.79999999999995
20
-163.09899999999999
10
135.79999999999995
20
-176.09899999999999
42
0.41421356237309503
10
136.29999999999998
20
-176.59899999999999
10
149.29999999999995
20
-176.59899999999999
42
0.41421356237309503
10
149.79999999999995
20
-176.09899999999999
0
LWPOLYLINE
5
163
100
AcDbEntity
8
0
100
AcDbPolyline
90
8
70
1
43
0.0
10
44.524999999999949
20
-162.59900000000002
10
31.524999999999945
20
-162.59900000000002
42
0.41421356237309503
10
31.024999999999938
20
-163.09899999999999
10
31.024999999999938
20
-176.09900000000005
42
0.41421356237309503
10
31.524999999999945
20
-176.59899999999999
10
44.524999999999949
20
-176.59899999999999
42
0.41421356237309503
10
45.024999999999963
20
-176.09900000000005
10
45.024999999999963
20
-163.09899999999999
42
0.41421356237309503
0
LWPOLYLINE
5
164
100
AcDbEntity
8
0
100
AcDbPolyline
90
8
70
1
43
0.0
10
55.337499999999963
20
-162.59900000000002
42
0.41421356237309503
10
54.837499999999949
20
-163.09899999999999
10
54.837499999999949
20
-176.09900000000005
42
0.41421356237309503
10
55.337499999999963
20
-176.59899999999999
10
68.337499999999963
20
-176.59899999999999
42
0.41421356237308982
10
68.837499999999935
20
-176.09900000000005
10
68.837499999999963
20
-163.09899999999999
42
0.41421356237309503
10
68.337499999999963
20
-162.59900000000002
0
LINE
5
165
100
AcDbEntity
8
0
100
AcDbLine
10
25.143749999999958
20
-195.649
30
0
11
24.643749999999951
21
-195.649
31
0
0
LWPOLYLINE
5
166
100
AcDbEntity
8
0
100
AcDbPolyline
90
8
70
1
43
0.0
10
213.26249999999993
20
-176.59899999999999
10
212.76249999999999
20
-176.59900000000005
42
-0.41421356237309503
10
212.26249999999993
20
-176.09899999999999
10
212.26249999999999
20
-163.09899999999999
42
-0.41421356237309503
10
212.76249999999999
20
-162.59900000000002
10
213.26249999999993
20
-162.59899999999993
42
-0.41421356237309503
10
213.76249999999999
20
-163.09899999999999
10
213.76249999999996
20
-176.09899999999999
42
-0.41421356237309503
0
LWPOLYLINE
5
167
100
AcDbEntity
8
0
100
AcDbPolyline
90
8
70
1
43
0.0
10
51.337499999999935
20
-162.59900000000002
10
50.837499999999963
20
-162.59900000000002
42
0.41421356237309503
10
50.337499999999963
20
-163.09899999999999
10
50.337499999999963
20
-176.09900000000005
42
0.41421356237309503
10
50.837499999999963
20
-176.59899999999999
10
51.337499999999935
20
-176.59899999999999
42
0.41421356237309503
10
51.837499999999949
20
-176.09900000000005
10
51.837499999999949
20
-163.09899999999999
42
0.41421356237309503
0
LINE
5
168
100
AcDbEntity
8
0
100
AcDbLine
10
2.4499999999999211
20
-195.149
30
0
11
2.4499999999999211
21
-182.149
31
0
0
LWPOLYLINE
5
169
100
AcDbEntity
8
0
100
AcDbPolyline
90
8
70
1
43
0.0
10
82.649999999999935
20
-160.59899999999999
42
0.41421356237309503
10
82.14999999999992
20
-161.09899999999999
10
82.14999999999992
20
-175.09900000000002
42
0.41421356237309503
10
82.649999999999935
20
-175.59899999999999
10
88.649999999999963
20
-175.59899999999999
42
0.41421356237309503
10
89.149999999999935
20
-175.09900000000002
10
89.149999999999935
20
-161.09899999999999
42
0.41421356237309503
10
88.649999999999963
20
-160.59899999999999
0
LWPOLYLINE
5
170
100
AcDbEntity
8
0
100
AcDbPolyline
90
8
70
1
43
0.0
10
72.337499999999949
20
-162.59900000000002
42
0.41421356237309503
10
71.837499999999935
20
-163.09899999999999
10
71.837499999999935
20
-176.09900000000005
42
0.41421356237310025
10
72.337499999999949
20
-176.59899999999999
10
72.837499999999963
20
-176.59899999999999
42
0.41421356237311063
10
73.337499999999963
20
-176.09899999999999
10
73.337499999999963
20
-163.09899999999999
42
0.41421356237309503
10
72.837499999999949
20
-162.59900000000002
0
ARC
5
171
100
AcDbEntity
8
0
100
AcDbCircle
10
2.9499999999999282
20
-195.149
30
0
40
0.50000000000000711
210
0
220
0
230
1
100
AcDbArc
50
180
51
270
0
LWPOLYLINE
5
172
100
AcDbEntity
8
0
100
AcDbPolyline
90
8
70
1
43
0.0
10
263.60000000000002
20
-252.79899999999998
42
0.41421356237309503
10
264.09999999999997
20
-252.29899999999998
10
264.09999999999997
20
-239.29899999999998
42
0.41421356237309503
10
263.60000000000002
20
-238.79899999999998
10
250.59999999999997
20
-238.79899999999998
42
0.41421356237309503
10
250.09999999999997
20
-239.29899999999998
10
250.09999999999997
20
-252.29899999999998
42
0.41421356237309503
10
250.59999999999997
20
-252.79899999999998
0
LWPOLYLINE
5
173
100
AcDbEntity
8
0
100
AcDbPolyline
90
8
70
1
43
0.0
10
225.99999999999994
20
-252.29899999999998
10
225.99999999999994
20
-239.29899999999998
42
0.41421356237309503
10
225.49999999999997
20
-238.79899999999998
10
212.5
20
-238.79899999999998
42
0.41421356237309503
10
211.99999999999994
20
-239.29899999999998
10
211.99999999999994
20
-252.29899999999998
42
0.41421356237309503
10
212.5
20
-252.79899999999998
10
225.49999999999997
20
-252.79899999999998
42
0.41421356237309503
0
LWPOLYLINE
5
174
100
AcDbEntity
8
0
100
AcDbPolyline
90
8
70
1
43
0.0
10
135.79999999999995
20
-252.29900000000001
10
135.79999999999995
20
-239.29900000000001
42
-0.41421356237309503
10
136.29999999999998
20
-238.79899999999998
10
149.29999999999995
20
-238.79899999999998
42
-0.41421356237309503
10
149.79999999999995
20
-239.29900000000001
10
149.79999999999993
20
-252.29900000000001
42
-0.41421356237309503
10
149.29999999999995
20
-252.79899999999998
10
136.29999999999998
20
-252.79900000000001
42
-0.41421356237309503
0
LWPOLYLINE
5
175
100
AcDbEntity
8
0
100
AcDbPolyline
90
8
70
1
43
0.0
10
187.89999999999998
20
-252.29900000000001
10
187.89999999999992
20
-239.29899999999998
42
0.41421356237309503
10
187.39999999999995
20
-238.79899999999998
10
174.39999999999998
20
-238.79899999999998
42
0.41421356237309503
10
173.89999999999992
20
-239.29900000000001
10
173.89999999999992
20
-252.29900000000001
42
0.41421356237309503
10
174.39999999999998
20
-252.79899999999998
10
187.39999999999995
20
-252.79899999999998
42
0.41421356237309503
0
LWPOLYLINE
5
176
100
AcDbEntity
8
0
100
AcDbPolyline
90
8
70
1
43
0.0
10
168.34999999999994
20
-252.79899999999998
10
155.34999999999999
20
-252.79900000000001
42
-0.41421356237309503
10
154.84999999999997
20
-252.29900000000001
10
154.84999999999997
20
-239.29900000000001
42
-0.41421356237309503
10
155.34999999999999
20
-238.79899999999998
10
168.34999999999994
20
-238.79899999999995
42
-0.41421356237309503
10
168.84999999999997
20
-239.29900000000001
10
168.84999999999991
20
-252.29900000000001
42
-0.41421356237309503
0
LWPOLYLINE
5
177
100
AcDbEntity
8
0
100
AcDbPolyline
90
8
70
1
43
0.0
10
245.04999999999995
20
-252.29899999999998
10
245.04999999999995
20
-239.29899999999998
42
0.41421356237309503
10
244.54999999999998
20
-238.79899999999998
10
231.54999999999995
20
-238.79899999999998
42
0.41421356237309503
10
231.04999999999995
20
-239.29899999999998
10
231.04999999999995
20
-252.29899999999998
42
0.41421356237309503
10
231.54999999999995
20
-252.79899999999998
10
244.54999999999998
20
-252.79899999999998
42
0.41421356237309503
0
LWPOLYLINE
5
178
100
AcDbEntity
8
0
100
AcDbPolyline
90
8
70
1
43
0.0
10
206.94999999999999
20
-239.29899999999998
42
0.41421356237309503
10
206.44999999999996
20
-238.79899999999998
10
193.44999999999999
20
-238.79899999999998
42
0.41421356237309503
10
192.94999999999993
20
-239.29899999999998
10
192.94999999999993
20
-252.29900000000001
42
0.41421356237309503
10
193.44999999999999
20
-252.79899999999998
10
206.44999999999996
20
-252.79899999999998
42
0.41421356237309503
10
206.94999999999999
20
-252.29899999999998
0
LWPOLYLINE
5
179
100
AcDbEntity
8
0
100
AcDbPolyline
90
8
70
1
43
0.0
10
269.64999999999998
20
-238.79899999999998
42
0.41421356237309503
10
269.14999999999998
20
-239.29899999999998
10
269.14999999999998
20
-252.29899999999998
42
0.41421356237309503
10
269.64999999999998
20
-252.79899999999998
10
282.64999999999998
20
-252.79899999999998
42
0.41421356237309503
10
283.14999999999998
20
-252.29899999999998
10
283.14999999999998
20
-239.29899999999998
42
0.41421356237309503
10
282.64999999999998
20
-238.79899999999998
0
LWPOLYLINE
5
180
100
AcDbEntity
8
0
100
AcDbPolyline
90
8
70
1
43
0.0
10
97.699999999999974
20
-252.29900000000001
10
97.699999999999974
20
-239.29900000000001
42
-0.41421356237309503
10
98.199999999999989
20
-238.79899999999998
10
111.19999999999996
20
-238.79899999999998
42
-0.41421356237309503
10
111.69999999999996
20
-239.29900000000001
10
111.69999999999993
20
-252.29900000000001
42
-0.41421356237309503
10
111.19999999999996
20
-252.79899999999998
10
98.199999999999989
20
-252.79900000000001
42
-0.41421356237309503
0
LWPOLYLINE
5
181
100
AcDbEntity
8
0
100
AcDbPolyline
90
8
70
1
43
0.0
10
54.549999999999983
20
-252.29900000000001
10
54.549999999999983
20
-239.29900000000001
42
0.41421356237309503
10
54.049999999999976
20
-238.79899999999998
10
41.049999999999969
20
-238.79899999999998
42
0.41421356237309503
10
40.549999999999962
20
-239.29900000000001
10
40.549999999999962
20
-252.29900000000001
42
0.41421356237309503
10
41.049999999999969
20
-252.79900000000001
10
54.049999999999976
20
-252.79900000000001
42
0.41421356237309503
0
LWPOLYLINE
5
182
100
AcDbEntity
8
0
100
AcDbPolyline
90
8
70
1
43
0.0
10
73.09999999999998
20
-252.79899999999998
42
0.41421356237309503
10
73.59999999999998
20
-252.29900000000001
10
73.59999999999998
20
-239.29900000000001
42
0.41421356237309503
10
73.099999999999966
20
-238.79899999999998
10
60.09999999999998
20
-238.79899999999998
42
0.41421356237309503
10
59.599999999999973
20
-239.29900000000001
10
59.599999999999973
20
-252.29900000000001
42
0.41421356237309503
10
60.09999999999998
20
-252.79899999999998
0
LINE
5
183
100
AcDbEntity
8
0
100
AcDbLine
10
3.536999999999999
20
-238.79899999999998
30
0
11
3.536999999999999
21
-237.29900000000001
31
0
0
LINE
5
184
100
AcDbEntity
8
0
100
AcDbLine
10
10.036999999999985
20
-236.79900000000001
30
0
11
4.0370000000000061
21
-236.79900000000001
31
0
0
ARC
5
185
100
AcDbEntity
8
0
100
AcDbCircle
10
27.912999999999961
20
-237.29900000000001
30
0
40
0.50000000000000711
210
0
220
-0
230
1
100
AcDbArc
50
90
51
180
0
LWPOLYLINE
5
186
100
AcDbEntity
8
0
100
AcDbPolyline
90
8
70
1
43
0.0
10
78.649999999999977
20
-252.29900000000001
10
78.649999999999935
20
-239.29900000000001
42
-0.41421356237309503
10
79.149999999999935
20
-238.79899999999998
10
92.149999999999949
20
-238.79899999999998
42
-0.41421356237309503
10
92.649999999999949
20
-239.29900000000001
10
92.64999999999992
20
-252.29900000000001
42
-0.41421356237309503
10
92.149999999999949
20
-252.79899999999998
10
79.149999999999949
20
-252.79899999999998
42
-0.41421356237309503
0
LWPOLYLINE
5
187
100
AcDbEntity
8
0
100
AcDbPolyline
90
8
70
1
43
0.0
10
117.24999999999996
20
-238.79899999999998
42
0.41421356237309503
10
116.74999999999996
20
-239.29900000000001
10
116.74999999999996
20
-252.29900000000001
42
0.41421356237309503
10
117.24999999999996
20
-252.79899999999998
10
130.24999999999994
20
-252.79899999999998
42
0.41421356237309503
10
130.74999999999994
20
-252.29900000000001
10
130.74999999999994
20
-239.29900000000001
42
0.41421356237309503
10
130.24999999999994
20
-238.79899999999998
0
ARC
5
188
100
AcDbEntity
8
0
100
AcDbCircle
10
33.912999999999975
20
-237.29900000000001
30
0
40
0.50000000000000711
210
0
220
-0
230
1
100
AcDbArc
50
0
51
90
0
LINE
5
189
100
AcDbEntity
8
0
100
AcDbLine
10
25.474999999999994
20
-252.79900000000001
30
0
11
12.474999999999987
21
-252.79900000000001
31
0
0
LINE
5
190
100
AcDbEntity
8
0
100
AcDbLine
10
10.536999999999992
20
-238.79899999999998
30
0
11
10.536999999999992
21
-237.29900000000001
31
0
0
LWPOLYLINE
5
191
100
AcDbEntity
8
0
100
AcDbPolyline
90
8
70
1
43
0.0
10
215.97499999999997
20
-233.74899999999997
42
0.41421356237309503
10
216.47499999999994
20
-233.249
10
216.47499999999994
20
-220.249
42
0.41421356237309503
10
215.97499999999997
20
-219.74899999999997
10
202.97499999999991
20
-219.74899999999997
42
0.41421356237309503
10
202.47499999999997
20
-220.249
10
202.47499999999997
20
-233.249
42
0.41421356237309503
10
202.97499999999991
20
-233.74899999999997
0
LWPOLYLINE
5
192
100
AcDbEntity
8
0
100
AcDbPolyline
90
8
70
1
43
0.0
10
260.88749999999999
20
-233.74899999999997
42
0.41421356237309503
10
261.38749999999993
20
-233.249
10
261.38749999999993
20
-220.24899999999997
42
0.41421356237309503
10
260.88749999999999
20
-219.74899999999997
10
260.38749999999999
20
-219.74899999999997
42
0.41421356237309503
10
259.88749999999993
20
-220.24899999999997
10
259.88749999999993
20
-233.249
42
0.41421356237309503
10
260.38749999999999
20
-233.74899999999997
0
LINE
5
193
100
AcDbEntity
8
0
100
AcDbLine
10
34.999999999999964
20
-252.79900000000001
30
0
11
21.999999999999957
21
-252.79900000000001
31
0
0
LINE
5
194
100
AcDbEntity
8
0
100
AcDbLine
10
33.912999999999975
20
-236.79900000000001
30
0
11
27.912999999999961
21
-236.79900000000001
31
0
0
LWPOLYLINE
5
195
100
AcDbEntity
8
0
100
AcDbPolyline
90
8
70
1
43
0.0
10
254.07499999999999
20
-233.74899999999997
10
241.07499999999993
20
-233.74899999999997
42
-0.41421356237309503
10
240.57499999999999
20
-233.249
10
240.57499999999993
20
-220.249
42
-0.41421356237309503
10
241.07499999999993
20
-219.74899999999997
10
254.07499999999999
20
-219.74900000000002
42
-0.41421356237307422
10
254.57499999999996
20
-220.24899999999997
10
254.57499999999996
20
-233.249
42
-0.41421356237309503
0
LWPOLYLINE
5
196
100
AcDbEntity
8
0
100
AcDbPolyline
90
8
70
1
43
0.0
10
277.88749999999999
20
-233.74899999999997
10
264.88749999999993
20
-233.74899999999997
42
-0.41421356237309503
10
264.38749999999999
20
-233.249
10
264.38749999999999
20
-220.24899999999997
42
-0.41421356237309503
10
264.88749999999993
20
-219.74899999999997
10
277.88749999999999
20
-219.74899999999997
42
-0.41421356237309503
10
278.38749999999999
20
-220.24899999999997
10
278.38749999999999
20
-233.249
42
-0.41421356237309503
0
LINE
5
197
100
AcDbEntity
8
0
100
AcDbLine
10
25.474999999999994
20
-238.79899999999998
30
0
11
12.474999999999987
21
-238.79899999999998
31
0
0
LINE
5
198
100
AcDbEntity
8
0
100
AcDbLine
10
34.412999999999982
20
-238.79899999999998
30
0
11
34.412999999999982
21
-237.29900000000001
31
0
0
LINE
5
199
100
AcDbEntity
8
0
100
AcDbLine
10
27.412999999999954
20
-238.79899999999998
30
0
11
27.412999999999954
21
-237.29900000000001
31
0
0
LWPOLYLINE
5
200
100
AcDbEntity
8
0
100
AcDbPolyline
90
8
70
1
43
0.0
10
235.02499999999998
20
-233.74899999999997
42
0.41421356237309503
10
235.52499999999995
20
-233.249
10
235.52499999999995
20
-220.249
42
0.41421356237309503
10
235.02499999999998
20
-219.74899999999997
10
222.02499999999992
20
-219.74899999999997
42
0.41421356237309503
10
221.52499999999998
20
-220.249
10
221.52499999999998
20
-233.249
42
0.41421356237309503
10
222.02499999999992
20
-233.74899999999997
0
ARC
5
201
100
AcDbEntity
8
0
100
AcDbCircle
10
2.949999999999946
20
-252.29900000000001
30
0
40
0.50000000000000711
210
0
220
0
230
1
100
AcDbArc
50
180
51
270
0
LWPOLYLINE
5
202
100
AcDbEntity
8
0
100
AcDbPolyline
90
8
70
1
43
0.0
10
282.38749999999993
20
-219.74899999999997
10
281.88749999999999
20
-219.74899999999997
42
0.41421356237309503
10
281.38749999999993
20
-220.24899999999997
10
281.38749999999993
20
-233.249
42
0.41421356237309503
10
281.88749999999999
20
-233.74899999999997
10
282.38749999999993
20
-233.74899999999997
42
0.41421356237309503
10
282.88749999999999
20
-233.249
10
282.88749999999999
20
-220.24899999999997
42
0.41421356237309503
0
ARC
5
203
100
AcDbEntity
8
0
100
AcDbCircle
10
10.036999999999985
20
-237.29900000000001
30
0
40
0.50000000000000711
210
0
220
-0
230
1
100
AcDbArc
50
0
51
90
0
ARC
5
204
100
AcDbEntity
8
0
100
AcDbCircle
10
4.0370000000000061
20
-237.29900000000001
30
0
40
0.50000000000000711
210
0
220
-0
230
1
100
AcDbArc
50
90
51
180
0
ARC
5
205
100
AcDbEntity
8
0
100
AcDbCircle
10
2.949999999999946
20
-239.29900000000001
30
0
40
0.50000000000000711
210
0
220
-0
230
1
100
AcDbArc
50
90
51
180
0
ARC
5
206
100
AcDbEntity
8
0
100
AcDbCircle
10
34.999999999999964
20
-239.29900000000001
30
0
40
0.50000000000000711
210
0
220
-0
230
1
100
AcDbArc
50
0
51
90
0
LINE
5
207
100
AcDbEntity
8
0
100
AcDbLine
10
2.4499999999999389
20
-252.29900000000001
30
0
11
2.4499999999999389
21
-239.29900000000001
31
0
0
LWPOLYLINE
5
208
100
AcDbEntity
8
0
100
AcDbPolyline
90
8
70
1
43
0.0
10
178.375
20
-220.249
42
0.41421356237309503
10
177.87499999999994
20
-219.74899999999997
10
164.87499999999997
20
-219.74899999999997
42
0.41421356237309503
10
164.37499999999997
20
-220.249
10
164.37499999999997
20
-233.249
42
0.41421356237309503
10
164.87499999999997
20
-233.74899999999997
10
177.87499999999994
20
-233.74899999999997
42
0.41421356237309503
10
178.375
20
-233.249
0
LWPOLYLINE
5
209
100
AcDbEntity
8
0
100
AcDbPolyline
90
8
70
1
43
0.0
10
183.42499999999995
20
-233.249
10
183.42499999999998
20
-220.249
42
-0.41421356237309503
10
183.92499999999998
20
-219.74899999999997
10
196.92499999999995
20
-219.74900000000002
42
-0.41421356237309503
10
197.42499999999993
20
-220.249
10
197.42499999999993
20
-233.249
42
-0.41421356237309503
10
196.92499999999995
20
-233.74899999999997
10
183.92499999999998
20
-233.74900000000002
42
-0.41421356237309503
0
LWPOLYLINE
5
210
100
AcDbEntity
8
0
100
AcDbPolyline
90
8
70
1
43
0.0
10
139.77499999999995
20
-219.74899999999997
10
126.77499999999996
20
-219.74899999999997
42
0.41421356237309503
10
126.27499999999996
20
-220.249
10
126.27499999999996
20
-233.249
42
0.41421356237309503
10
126.77499999999996
20
-233.74899999999997
10
139.77499999999995
20
-233.74899999999997
42
0.41421356237309503
10
140.27499999999998
20
-233.249
10
140.27499999999998
20
-220.249
42
0.41421356237309503
0
LWPOLYLINE
5
211
100
AcDbEntity
8
0
100
AcDbPolyline
90
8
70
1
43
0.0
10
120.72499999999997
20
-233.74899999999997
10
107.72499999999999
20
-233.749
42
-0.41421356237309503
10
107.22499999999998
20
-233.249
10
107.22499999999998
20
-220.249
42
-0.41421356237309503
10
107.72499999999999
20
-219.74899999999997
10
120.72499999999997
20
-219.74899999999997
42
-0.41421356237309503
10
121.22499999999997
20
-220.249
10
121.22499999999994
20
-233.249
42
-0.41421356237309503
0
LWPOLYLINE
5
212
100
AcDbEntity
8
0
100
AcDbPolyline
90
8
70
1
43
0.0
10
145.32499999999996
20
-233.249
10
145.32499999999996
20
-220.249
42
-0.41421356237309503
10
145.82499999999999
20
-219.74899999999997
10
158.82499999999996
20
-219.74899999999997
42
-0.41421356237309503
10
159.32499999999999
20
-220.249
10
159.32499999999993
20
-233.249
42
-0.41421356237309503
10
158.82499999999996
20
-233.74899999999997
10
145.82499999999999
20
-233.749
42
-0.41421356237309503
0
ARC
5
213
100
AcDbEntity
8
0
100
AcDbCircle
10
34.999999999999964
20
-252.29900000000001
30
0
40
0.50000000000000711
210
-0
220
0
230
1
100
AcDbArc
50
-90
51
0
0
LINE
5
214
100
AcDbEntity
8
0
100
AcDbLine
10
15.949999999999953
20
-252.79900000000001
30
0
11
2.949999999999946
21
-252.79900000000001
31
0
0
LINE
5
215
100
AcDbEntity
8
0
100
AcDbLine
10
35.499999999999972
20
-252.29900000000001
30
0
11
35.499999999999972
21
-239.29900000000001
31
0
0
LINE
5
216
100
AcDbEntity
8
0
100
AcDbLine
10
19.618749999999974
20
-181.64900000000003
30
0
11
17.680749999999943
21
-181.64900000000003
31
0
0
LINE
5
217
100
AcDbEntity
8
0
100
AcDbLine
10
19.618749999999974
20
-195.649
30
0
11
15.949999999999935
21
-195.649
31
0
0
LINE
5
218
100
AcDbEntity
8
0
100
AcDbLine
10
42.143749999999955
20
-181.64900000000003
30
0
11
41.556749999999965
21
-181.64900000000003
31
0
0
LINE
5
219
100
AcDbEntity
8
0
100
AcDbLine
10
34.55674999999998
20
-181.64900000000003
30
0
11
29.143749999999944
21
-181.64900000000003
31
0
0
LINE
5
220
100
AcDbEntity
8
0
100
AcDbLine
10
15.949999999999953
20
-238.79899999999998
30
0
11
10.536999999999992
21
-238.79899999999998
31
0
0
LINE
5
221
100
AcDbEntity
8
0
100
AcDbLine
10
3.536999999999999
20
-238.79899999999998
30
0
11
2.949999999999946
21
-238.79899999999998
31
0
0
LINE
5
222
100
AcDbEntity
8
0
100
AcDbLine
10
34.999999999999964
20
-238.79899999999998
30
0
11
34.412999999999982
21
-238.79899999999998
31
0
0
LINE
5
223
100
AcDbEntity
8
0
100
AcDbLine
10
27.412999999999954
20
-238.79899999999998
30
0
11
21.999999999999957
21
-238.79899999999998
31
0
0
LWPOLYLINE
5
224
100
AcDbEntity
8
0
100
AcDbPolyline
90
10
70
1
43
0.0
10
264.09999999999997
20
-236.27399999999997
10
264.10000000000002
20
-236.67399999999998
42
-0.41421356237309503
10
264
20
-236.774
10
40.649999999999942
20
-236.77400000000003
42
-0.41421356237319906
10
40.549999999999962
20
-236.67400000000001
10
40.549999999999962
20
-236.274
10
40.549999999999997
20
-235.874
42
-0.41421356237319906
10
40.649999999999942
20
-235.774
10
264
20
-235.77399999999997
42
-0.41421356237309503
10
264.09999999999997
20
-235.87399999999997
0
LWPOLYLINE
5
225
100
AcDbEntity
8
0
100
AcDbPolyline
90
9
70
1
43
0.0
10
254.57499999999996
20
-217.22399999999996
10
254.57499999999996
20
-216.82399999999998
42
0.41421356237309503
10
254.47499999999997
20
-216.72399999999996
10
31.124999999999936
20
-216.72399999999999
42
0.41421356237319906
10
31.024999999999956
20
-216.82400000000001
10
31.024999999999956
20
-217.624
42
0.41421356237299095
10
31.124999999999936
20
-217.72400000000002
10
254.47499999999997
20
-217.72399999999999
42
0.41421356237309503
10
254.57499999999996
20
-217.624
0
LWPOLYLINE
5
226
100
AcDbEntity
8
0
100
AcDbPolyline
90
10
70
1
43
0.0
10
54.837499999999949
20
-179.12400000000002
10
54.837499999999949
20
-179.524
42
0.41421356237319906
10
54.937499999999986
20
-179.62400000000002
10
240.18749999999997
20
-179.62399999999997
42
0.41421356237309503
10
240.28749999999997
20
-179.52399999999997
10
240.28749999999997
20
-179.12399999999997
10
240.28749999999997
20
-178.72399999999999
42
0.41421356237309503
10
240.18749999999997
20
-178.62399999999997
10
54.937499999999972
20
-178.62400000000002
42
0.41421356237330315
10
54.837499999999949
20
-178.72400000000002
0
LWPOLYLINE
5
227
100
AcDbEntity
8
0
100
AcDbPolyline
90
10
70
1
43
0.0
10
249.81249999999994
20
-198.17399999999998
10
249.81249999999994
20
-198.57399999999998
42
-0.41421356237309503
10
249.71249999999998
20
-198.67399999999998
10
45.412499999999966
20
-198.67399999999998
42
-0.41421356237319906
10
45.312499999999943
20
-198.57399999999998
10
45.312499999999943
20
-198.17399999999998
10
45.312499999999943
20
-197.774
42
-0.41421356237319906
10
45.412499999999966
20
-197.67400000000004
10
249.71249999999998
20
-197.67399999999998
42
-0.41421356237319906
10
249.81249999999994
20
-197.774
0
LINE
5
228
100
AcDbEntity
8
0
100
AcDbLine
10
31.024999999999956
20
-217.22399999999999
30
0
11
31.024999999999956
21
-217.624
31
0
0
LWPOLYLINE
5
229
100
AcDbEntity
8
0
100
AcDbPolyline
90
28
70
1
43
0.0
10
285.67499334579139
20
-158.2979736389176
10
285.67539617497681
20
-265.79797363816283
10
252.80039617520765
20
-265.79809682894859
10
252.80041491144883
20
-270.79809682891351
10
212.80041491172966
20
-270.79824671884296
10
212.80039617548849
20
-265.79824671887809
10
162.80039617583952
20
-265.79843408128988
10
162.8004149120807
20
-270.79843408125475
10
122.80041491236155
20
-270.7985839711842
10
122.80039617612036
20
-265.79858397121933
10
72.800396176471409
20
-265.79877133363112
10
72.800414912712597
20
-270.79877133359605
10
32.800414912993432
20
-270.79892122352544
10
32.800396176752244
20
-265.79892122356068
10
-0.074603823016942905
20
-265.79904441434644
10
-0.075006652202365132
20
-158.29904441510121
10
32.799993347566804
20
-158.29892122431534
10
32.799974611325624
20
-153.29892122435044
10
72.799974611044789
20
-153.29877133442099
10
72.799993347285977
20
-158.29877133438589
10
122.79999334693493
20
-158.2985839719741
10
122.79997461069374
20
-153.2985839720092
10
162.7999746104129
20
-153.29843408207975
10
162.79999334665408
20
-158.29843408204465
10
212.79999334630304
20
-158.29824671963283
10
212.79997461006187
20
-153.29824671966793
10
252.79997460978103
20
-153.29809682973848
10
252.79999334602221
20
-158.29809682970338
0
LINE
5
230
100
AcDbEntity
8
0
100
AcDbLine
10
285.67539617497681
20
-265.79797363816283
30
0
11
252.80039617520765
21
-265.79809682894859
31
0
0
LINE
5
231
100
AcDbEntity
8
0
100
AcDbLine
10
212.80039617548849
20
-265.79824671887809
30
0
11
162.80039617583952
21
-265.79843408128988
31
0
0
LINE
5
232
100
AcDbEntity
8
0
100
AcDbLine
10
122.80039617612036
20
-265.79858397121933
30
0
11
72.800396176471409
21
-265.79877133363112
31
0
0
LINE
5
233
100
AcDbEntity
8
0
100
AcDbLine
10
32.800396176752244
20
-265.79892122356068
30
0
11
-0.074603823016942905
21
-265.79904441434644
31
0
0
LINE
5
234
100
AcDbEntity
8
0
100
AcDbLine
10
212.79999334630304
20
-158.29824671963283
30
0
11
162.79999334665408
21
-158.29843408204465
31
0
0
LINE
5
235
100
AcDbEntity
8
0
100
AcDbLine
10
122.79999334693493
20
-158.2985839719741
30
0
11
72.799993347285977
21
-158.29877133438589
31
0
0
LINE
5
236
100
AcDbEntity
8
0
100
AcDbLine
10
32.799993347566804
20
-158.29892122431534
30
0
11
-0.075006652202365132
21
-158.29904441510121
31
0
0
LINE
5
237
100
AcDbEntity
8
0
100
AcDbLine
10
252.79999334602221
20
-158.29809682970338
30
0
11
285.67499334579139
21
-158.2979736389176
31
0
0
ENDSEC
0
SECTION
2
OBJECTS
0
DICTIONARY
5
C
100
AcDbDictionary
3
ACAD_GROUP
350
D
3
ACAD_MLINESTYLE
350
17
0
DICTIONARY
5
D
100
AcDbDictionary
0
DICTIONARY
5
1A
330
C
100
AcDbDictionary
0
DICTIONARY
5
17
100
AcDbDictionary
0
ENDSEC
0
EOF
